<svg xmlns="http://www.w3.org/2000/svg" viewBox="0 0 64 64">
  <rect width="64" height="64" rx="14" fill="#f8fafc"/>
  <path d="M48 14.5C42.9 9.9 35.9 8 29.2 9.4C18.2 11.7 10 21.4 10 32.8C10 45.5 20.1 55.8 32.8 55.8H48.8L44.7 49.1C49.9 44.8 53 38.5 53 31.6" stroke="#0f172a" stroke-width="7" stroke-linecap="round" stroke-linejoin="round" fill="none"/>
  <path d="M23 30.2C26.9 27.8 30.7 27.8 34.6 30.2V43.4C30.7 41 26.9 41 23 43.4V30.2Z" stroke="#0f766e" stroke-width="3.2" stroke-linejoin="round" fill="none"/>
  <path d="M34.6 30.2C38.5 27.8 42.3 27.8 46.2 30.2V43.4C42.3 41 38.5 41 34.6 43.4V30.2Z" stroke="#0f766e" stroke-width="3.2" stroke-linejoin="round" fill="none"/>
  <path d="M50.8 8.8L54.8 4.8M55.7 17.2H61M44.4 5.2L43.1 1" stroke="#d97706" stroke-width="3" stroke-linecap="round" fill="none"/>
</svg>
